Coordinates
version=1
nRows=12
nColumns=42
inDegrees=yes

Units are S.I. units (second, meters, Newtons, ...)
If the header above contains a line with 'inDegrees', this indicates whether rotational values are in degrees (yes) or radians (no).

endheader
time	pelvis_tilt	pelvis_list	pelvis_rotation	pelvis_tx	pelvis_ty	pelvis_tz	hip_flexion_r	hip_adduction_r	hip_rotation_r	knee_angle_r	knee_adduction_r	knee_angle_r_beta	ankle_angle_r	subtalar_angle_r	mtp_angle_r	hip_flexion_l	hip_adduction_l	hip_rotation_l	knee_angle_l	knee_adduction_l	knee_angle_l_beta	ankle_angle_l	subtalar_angle_l	mtp_angle_l	lumbar_extension	lumbar_bending	lumbar_rotation	arm_flex_r	arm_add_r	arm_rot_r	elbow_flex_r	pro_sup_r	wrist_flex_r	wrist_dev_r	arm_flex_l	arm_add_l	arm_rot_l	elbow_flex_l	pro_sup_l	wrist_flex_l	wrist_dev_l
      0.40000000	     15.27750563	     -4.67234631	      1.62017282	     -2.14569238	      0.90965687	      0.07957250	    -18.31445346	      5.79525796	    -39.24583313	     26.76904080	     -3.98396455	      0.46720790	     26.60307269	     37.79243849	     -9.52295850	     22.04555264	     -5.57163206	    -20.22583510	     25.46039378	    -10.22961618	      0.44436770	     15.38028802	     19.71119531	     -9.52295850	    -36.00540310	      2.79745571	      2.11100241	     23.32377203	    -23.03810681	      8.65480488	     63.46334541	     90.00000001	      0.00000000	      0.00000000	     -2.95367578	     -8.13947994	      2.98456203	     34.35472664	     90.00000001	      0.00000000	      0.00000000
      0.41000000	     15.18391635	     -4.78503041	      1.67504154	     -2.13698839	      0.90850309	      0.07848266	    -18.73225165	      5.80081131	    -39.21713870	     26.92659784	     -4.15459275	      0.46995779	     26.58253975	     37.81718195	     -9.52078133	     22.07237579	     -5.52976681	    -20.25194482	     25.48677375	    -10.26275057	      0.44482812	     15.39932291	     19.67820751	     -9.52078133	    -35.84809621	      2.92264665	      2.09414434	     23.52624096	    -23.14645916	      8.58572198	     63.55877373	     90.00000001	      0.00000000	      0.00000000	     -3.18918313	     -8.15766128	      2.98844476	     34.22525349	     90.00000001	      0.00000000	      0.00000000
      0.42000000	     15.35589534	     -4.88383892	      1.77867499	     -2.12831137	      0.90778170	      0.07696147	    -19.39478200	      5.70723721	    -39.23088244	     27.32078504	     -4.28920803	      0.47683765	     26.54244865	     37.96297201	     -9.51168012	     21.85498176	     -5.39246034	    -20.34155535	     26.02396913	    -10.56602810	      0.45420395	     15.64286115	     19.43877088	     -9.51168012	    -36.02780308	      3.10912154	      1.92551507	     23.83081540	    -23.19482834	      8.54690107	     63.80547357	     90.00000001	      0.00000000	      0.00000000	     -3.39353171	     -8.16612441	      3.15314398	     33.72731413	     90.00000001	      0.00000000	      0.00000000
      0.43000000	     15.48684942	     -4.83376989	      1.78302180	     -2.11919891	      0.90704873	      0.07557801	    -20.12256095	      5.39412500	    -39.21264683	     27.60518435	     -4.27163946	      0.48180136	     26.48880497	     38.11566279	     -9.49736095	     21.57577666	     -5.19090569	    -20.52254306	     26.90698131	    -10.74175407	      0.46961542	     16.16311848	     18.88602824	     -9.49736095	    -36.09473259	      3.05949162	      1.87838200	     23.90133051	    -23.29015524	      8.51665085	     63.95427960	     90.00000001	      0.00000000	      0.00000000	     -3.51545049	     -8.13882803	      3.57127301	     32.93546253	     90.00000001	      0.00000000	      0.00000000
      0.44000000	     15.54822379	     -4.79675813	      1.68718913	     -2.11003757	      0.90632989	      0.07435387	    -20.72331426	      5.10378873	    -39.14197100	     27.88061275	     -4.40661211	      0.48660849	     26.38064549	     38.24950029	     -9.46106969	     21.24069620	     -4.95328904	    -20.42332712	     27.88879671	    -10.88236352	      0.48675133	     16.82958668	     17.64927034	     -9.46106969	    -36.10434638	      2.96400074	      1.99576459	     23.80013333	    -23.39552703	      8.29428027	     64.10611903	     90.00000001	      0.00000000	      0.00000000	     -3.55781370	     -8.24061055	      4.45593959	     32.10662385	     90.00000001	      0.00000000	      0.00000000
      0.45000000	     15.62819956	     -4.72205981	      1.64874323	     -2.10077556	      0.90569598	      0.07294805	    -21.36629822	      4.77585694	    -39.09895009	     28.16343409	     -4.48043515	      0.49154465	     26.26052868	     38.33273630	     -9.43072041	     20.79755634	     -4.65578423	    -20.13455594	     28.94074543	    -10.91344774	      0.50511130	     17.22346029	     16.41153204	     -9.43072041	    -36.13634913	      2.86308306	      1.98104723	     23.70631376	    -23.36882267	      8.01959573	     64.12745566	     90.00000001	      0.00000000	      0.00000000	     -3.61182912	     -8.37110036	      4.93198583	     31.74669781	     90.00000001	      0.00000000	      0.00000000
      0.46000000	     15.68149934	     -4.62401094	      1.59780521	     -2.09143806	      0.90509700	      0.07148641	    -21.94999831	      4.45249033	    -39.08025527	     28.44576815	     -4.67377952	      0.49647231	     26.12724217	     38.37895320	     -9.41693675	     20.28852018	     -4.33797104	    -19.89863156	     29.91661969	    -10.91839138	      0.52214351	     17.46805263	     15.66899447	     -9.41693675	    -36.14830540	      2.74448827	      1.96472809	     23.56582018	    -23.34120411	      7.80060759	     64.08807621	     90.00000001	      0.00000000	      0.00000000	     -3.58370245	     -8.52482779	      4.98255292	     31.69899375	     90.00000001	      0.00000000	      0.00000000
      0.47000000	     15.69398021	     -4.50116517	      1.47824314	     -2.08195455	      0.90457868	      0.07010608	    -22.48571896	      4.05568846	    -38.99881460	     28.75109966	     -4.79111604	      0.50180135	     25.89894440	     38.43439776	     -9.39905685	     19.75183451	     -4.00937385	    -19.76592310	     30.90003275	    -10.91187781	      0.53930731	     17.92828902	     14.37137973	     -9.39905685	    -36.11085681	      2.55875591	      2.02737246	     23.26511576	    -23.24995663	      7.44514475	     64.00549781	     90.00000001	      0.00000000	      0.00000000	     -3.43615174	     -8.70948909	      4.80652190	     31.96588492	     90.00000001	      0.00000000	      0.00000000
      0.48000000	     15.53081535	     -4.26009133	      1.38766664	     -2.07282282	      0.90398614	      0.06849035	    -22.71388157	      3.55140736	    -38.95674531	     29.19814789	     -5.04155067	      0.50960382	     25.60586221	     38.47520708	     -9.31405284	     19.18508183	     -3.32048086	    -18.27866649	     31.51643004	    -10.37076631	      0.55006547	     17.53465322	     10.46917933	     -9.31405284	    -35.96508031	      2.27545600	      1.99137718	     22.93463159	    -23.09209554	      6.86164811	     63.86228011	     90.00000001	      0.00000000	      0.00000000	     -3.17759934	     -8.81831776	      3.72865845	     32.41864779	     90.00000001	      0.00000000	      0.00000000
      0.49000000	     15.51787859	     -4.10540840	      1.30227105	     -2.06323069	      0.90354455	      0.06693040	    -23.18188391	      3.15487682	    -38.89061337	     29.54943261	     -5.21064481	      0.51573489	     25.36242212	     38.46870496	     -9.29746477	     18.66897839	     -3.02271114	    -18.49364050	     32.33820036	    -10.43135659	      0.56440807	     17.78208639	      9.88799735	     -9.29746477	    -35.90533009	      2.07752345	      2.00653866	     22.56183294	    -23.02797207	      6.66006500	     63.59425713	     90.00000001	      0.00000000	      0.00000000	     -2.87488242	     -9.04078502	      3.36249559	     32.83056149	     90.00000001	      0.00000000	      0.00000000
      0.50000000	     15.43676312	     -3.92247319	      1.16624297	     -2.05364355	      0.90310193	      0.06545265	    -23.49964659	      2.73341100	    -38.81709251	     29.97552838	     -5.50693274	      0.52317167	     24.98708900	     38.46053421	     -9.28289541	     18.23188980	     -2.74357552	    -18.77293114	     33.03323835	    -10.47342033	      0.57653877	     17.91000729	      9.31069045	     -9.28289541	    -35.79461393	      1.80971323	      2.04427028	     22.13174899	    -22.92047651	      6.34356694	     63.29899619	     90.00000001	      0.00000000	      0.00000000	     -2.57661790	     -9.25156215	      2.84833023	     33.31019390	     90.00000001	      0.00000000	      0.00000000
      0.51000000	     15.33158968	     -3.72414738	      1.03412793	     -2.04405934	      0.90271979	      0.06400015	    -23.70662999	      2.28448599	    -38.73396651	     30.53664599	     -5.82918654	      0.53296502	     24.49246583	     38.44900840	     -9.26774633	     17.85950718	     -2.49548818	    -19.14626255	     33.65914465	    -10.53862429	      0.58746290	     17.89563245	      8.73147462	     -9.26774633	    -35.67621814	      1.49570594	      2.05181456	     21.62310239	    -22.74148919	      6.00720151	     62.92506862	     90.00000001	      0.00000000	      0.00000000	     -2.26500657	     -9.43129578	      2.26802252	     33.69088713	     90.00000001	      0.00000000	      0.00000000
